<svg width="1920" height="525" viewBox="0 0 1920 525" fill="none" xmlns="http://www.w3.org/2000/svg">
<rect width="840" height="525" fill="#E76769"/>
<rect x="840" width="1080" height="525" fill="#2C2E40"/>
<path d="M446.966 363.346C425.987 363.271 407.865 358.421 392.6 348.796C377.335 339.171 365.567 325.297 357.296 307.175C349.024 289.053 344.926 267.321 345.001 241.98C345.076 216.564 349.212 194.983 357.408 177.237C365.68 159.491 377.41 145.993 392.6 136.744C407.865 127.495 425.987 122.87 446.966 122.87C467.946 122.87 486.068 127.532 501.333 136.857C516.598 146.106 528.366 159.603 536.637 177.35C544.909 195.096 549.007 216.639 548.932 241.98C548.932 267.472 544.796 289.278 536.524 307.401C528.253 325.523 516.485 339.396 501.22 349.021C486.03 358.571 467.946 363.346 446.966 363.346ZM446.966 312.363C457.795 312.363 466.668 306.724 473.586 295.444C480.579 284.09 484.038 266.269 483.963 241.98C483.963 226.114 482.383 213.143 479.225 203.067C476.067 192.99 471.706 185.546 466.141 180.733C460.577 175.846 454.185 173.402 446.966 173.402C436.138 173.402 427.303 178.891 420.46 189.87C413.617 200.848 410.12 218.218 409.97 241.98C409.895 258.147 411.436 271.457 414.595 281.909C417.753 292.286 422.114 299.956 427.679 304.919C433.318 309.882 439.748 312.363 446.966 312.363Z" fill="white"/>
<path d="M682.137 314.477V302.509C682.137 292.905 684.206 284.04 688.343 275.914C692.554 267.787 698.648 261.249 706.627 256.299C714.606 251.35 724.321 248.875 735.771 248.875C747.518 248.875 757.38 251.313 765.359 256.189C773.411 261.064 779.506 267.566 783.643 275.692C787.78 283.818 789.849 292.757 789.849 302.509V314.477C789.849 324.081 787.743 332.946 783.533 341.073C779.395 349.199 773.301 355.737 765.248 360.687C757.196 365.637 747.37 368.111 735.771 368.111C724.173 368.111 714.384 365.637 706.406 360.687C698.427 355.737 692.369 349.199 688.232 341.073C684.169 332.946 682.137 324.081 682.137 314.477ZM720.701 302.509V314.477C720.701 318.688 721.735 322.862 723.803 326.999C725.946 331.062 729.935 333.094 735.771 333.094C741.903 333.094 745.929 331.099 747.85 327.11C749.845 323.121 750.842 318.91 750.842 314.477V302.509C750.842 298.077 749.919 293.792 748.072 289.655C746.225 285.518 742.125 283.449 735.771 283.449C729.935 283.449 725.946 285.518 723.803 289.655C721.735 293.792 720.701 298.077 720.701 302.509ZM563.344 184.602V172.634C563.344 162.883 565.449 153.944 569.66 145.817C573.945 137.691 580.077 131.19 588.055 126.314C596.034 121.438 605.675 119 616.978 119C628.724 119 638.587 121.438 646.566 126.314C654.618 131.19 660.713 137.691 664.85 145.817C668.987 153.944 671.056 162.883 671.056 172.634V184.602C671.056 194.354 668.95 203.256 664.739 211.309C660.602 219.361 654.507 225.788 646.455 230.59C638.402 235.392 628.577 237.793 616.978 237.793C605.379 237.793 595.591 235.355 587.612 230.48C579.634 225.604 573.576 219.14 569.439 211.087C565.375 203.034 563.344 194.206 563.344 184.602ZM602.351 172.634V184.602C602.351 189.035 603.385 193.246 605.453 197.235C607.522 201.224 611.363 203.219 616.978 203.219C623.11 203.219 627.136 201.224 629.057 197.235C631.052 193.246 632.049 189.035 632.049 184.602V172.634C632.049 168.202 631.125 163.917 629.278 159.78C627.432 155.643 623.331 153.574 616.978 153.574C611.142 153.574 607.226 155.717 605.232 160.001C603.311 164.212 602.351 168.423 602.351 172.634ZM582.182 357.03L738.209 130.081H769.681L613.654 357.03H582.182Z" fill="white"/>
<path d="M929.622 127.402V138.049H904.752V184.608H891V127.402H929.622ZM899.644 147.086H911.942C916.578 147.086 920.612 147.859 924.043 149.404C927.474 150.95 930.12 153.11 931.98 155.887C933.865 158.663 934.808 161.911 934.808 165.631C934.808 168.434 934.271 171.001 933.198 173.332C932.124 175.637 930.578 177.641 928.561 179.343C926.571 181.019 924.174 182.316 921.371 183.233C918.569 184.15 915.425 184.608 911.942 184.608H891.039V127.402H904.869V174H911.942C913.906 174 915.556 173.62 916.892 172.86C918.254 172.101 919.289 171.092 919.996 169.835C920.703 168.551 921.057 167.124 921.057 165.552C921.057 164.033 920.703 162.684 919.996 161.505C919.289 160.327 918.254 159.397 916.892 158.716C915.556 158.035 913.906 157.694 911.942 157.694H899.644V147.086Z" fill="white"/>
<path d="M980.66 174V184.608H950.171V174H980.66ZM955.082 127.402V184.608H941.291V127.402H955.082ZM976.731 150.111V160.366H950.171V150.111H976.731ZM980.778 127.402V138.049H950.171V127.402H980.778Z" fill="white"/>
<path d="M1018.85 165.238H1032.6C1032.42 169.219 1031.34 172.729 1029.38 175.768C1027.42 178.806 1024.69 181.177 1021.21 182.879C1017.75 184.556 1013.66 185.394 1008.95 185.394C1005.12 185.394 1001.71 184.752 998.694 183.469C995.708 182.185 993.167 180.338 991.072 177.929C989.002 175.519 987.418 172.598 986.318 169.167C985.244 165.736 984.707 161.872 984.707 157.576V154.473C984.707 150.177 985.27 146.313 986.396 142.882C987.549 139.424 989.173 136.491 991.268 134.081C993.39 131.645 995.931 129.785 998.89 128.502C1001.85 127.218 1005.14 126.577 1008.75 126.577C1013.73 126.577 1017.93 127.467 1021.36 129.248C1024.8 131.029 1027.45 133.479 1029.34 136.596C1031.23 139.686 1032.34 143.209 1032.68 147.165H1018.93C1018.88 145.017 1018.51 143.222 1017.83 141.782C1017.15 140.315 1016.07 139.215 1014.61 138.481C1013.14 137.748 1011.19 137.381 1008.75 137.381C1007.05 137.381 1005.57 137.696 1004.31 138.324C1003.06 138.953 1002.01 139.948 1001.17 141.31C1000.33 142.672 999.702 144.44 999.283 146.615C998.89 148.762 998.694 151.356 998.694 154.394V157.576C998.694 160.615 998.877 163.208 999.244 165.356C999.611 167.504 1000.2 169.259 1001.01 170.621C1001.82 171.983 1002.87 172.991 1004.16 173.646C1005.46 174.275 1007.06 174.589 1008.95 174.589C1011.04 174.589 1012.81 174.262 1014.25 173.607C1015.69 172.926 1016.81 171.904 1017.59 170.542C1018.38 169.154 1018.8 167.386 1018.85 165.238Z" fill="white"/>
<path d="M1087.14 127.402V184.608H1073.35V138.049H1052.8V184.608H1039.04V127.402H1087.14Z" fill="white"/>
<path d="M1134.6 127.402V138.049H1105.05V127.402H1134.6ZM1143.91 127.402V184.608H1130.12V127.402H1143.91ZM1104.11 127.402H1117.82L1116.33 156.476C1116.09 160.877 1115.65 164.675 1114.99 167.87C1114.34 171.04 1113.46 173.712 1112.36 175.886C1111.26 178.033 1109.94 179.749 1108.39 181.033C1106.85 182.316 1105.05 183.233 1103.01 183.783C1100.99 184.333 1098.73 184.608 1096.21 184.608H1092.87V174L1094.37 173.843C1095.57 173.712 1096.63 173.384 1097.55 172.86C1098.46 172.31 1099.25 171.498 1099.91 170.424C1100.59 169.35 1101.15 167.975 1101.59 166.299C1102.04 164.622 1102.39 162.592 1102.66 160.209C1102.94 157.799 1103.14 154.983 1103.24 151.762L1104.11 127.402Z" fill="white"/>
<path d="M1177.46 139.424L1163.52 184.608H1148.7L1169.72 127.402H1179.11L1177.46 139.424ZM1189.01 184.608L1175.03 139.424L1173.22 127.402H1182.73L1203.87 184.608H1189.01ZM1188.46 163.273V173.921H1159.12V163.273H1188.46Z" fill="white"/>
<path d="M1231.06 127.402V184.608H1217.26V127.402H1231.06ZM1248.26 127.402V138.049H1200.45V127.402H1248.26Z" fill="white"/>
<path d="M1292.66 150.111V160.72H1263.31V150.111H1292.66ZM1267.91 127.402V184.608H1254.12V127.402H1267.91ZM1301.93 127.402V184.608H1288.18V127.402H1301.93Z" fill="white"/>
<path d="M1319.26 147.086H1331.56C1336.2 147.086 1340.23 147.859 1343.66 149.404C1347.09 150.95 1349.74 153.11 1351.6 155.887C1353.48 158.663 1354.43 161.911 1354.43 165.631C1354.43 168.434 1353.89 171.001 1352.82 173.332C1351.74 175.637 1350.2 177.641 1348.18 179.343C1346.19 181.019 1343.79 182.316 1340.99 183.233C1338.19 184.15 1335.04 184.608 1331.56 184.608H1310.66V127.402H1324.49V174H1331.56C1333.52 174 1335.17 173.62 1336.51 172.86C1337.87 172.101 1338.91 171.092 1339.61 169.835C1340.32 168.551 1340.67 167.124 1340.67 165.552C1340.67 164.033 1340.32 162.684 1339.61 161.505C1338.91 160.327 1337.87 159.397 1336.51 158.716C1335.17 158.035 1333.52 157.694 1331.56 157.694H1319.26V147.086ZM1372.34 127.402V184.608H1358.59V127.402H1372.34Z" fill="white"/>
<path d="M1393.87 163.509L1414.42 127.402H1428.21V184.608H1414.42V148.54L1393.87 184.608H1380.08V127.402H1393.87V163.509ZM1409.71 112H1418.78C1418.78 114.357 1418.18 116.453 1416.98 118.286C1415.8 120.094 1414.12 121.508 1411.95 122.53C1409.77 123.551 1407.21 124.062 1404.25 124.062C1399.77 124.062 1396.22 122.949 1393.6 120.722C1390.98 118.47 1389.67 115.562 1389.67 112H1398.71C1398.71 113.283 1399.12 114.436 1399.96 115.458C1400.8 116.479 1402.23 116.99 1404.25 116.99C1406.26 116.99 1407.68 116.479 1408.49 115.458C1409.3 114.436 1409.71 113.283 1409.71 112Z" fill="white"/>
<path d="M951.459 309.348H928.284V293.098H945.458C949.459 293.098 952.69 292.451 955.153 291.159C957.615 289.804 959.431 287.896 960.6 285.434C961.77 282.91 962.355 279.956 962.355 276.57C962.355 274.046 961.677 271.707 960.323 269.553C959.031 267.399 957.03 265.675 954.322 264.382C951.613 263.09 948.166 262.443 943.981 262.443C940.78 262.443 937.856 262.967 935.209 264.013C932.562 265.059 930.469 266.598 928.93 268.63C927.392 270.599 926.622 273.062 926.622 276.016H894.306C894.306 269.984 895.63 264.598 898.276 259.858C900.923 255.118 904.524 251.087 909.079 247.763C913.696 244.439 918.989 241.915 924.96 240.192C930.993 238.406 937.333 237.514 943.981 237.514C951.675 237.514 958.63 238.345 964.847 240.007C971.064 241.607 976.389 244.008 980.821 247.209C985.314 250.41 988.761 254.411 991.162 259.212C993.563 263.952 994.763 269.461 994.763 275.739C994.763 280.356 993.716 284.695 991.624 288.758C989.592 292.821 986.669 296.391 982.852 299.468C979.036 302.546 974.45 304.978 969.095 306.763C963.801 308.486 957.923 309.348 951.459 309.348ZM928.284 301.13H951.459C958.661 301.13 965.063 301.9 970.664 303.439C976.266 304.978 981.006 307.224 984.883 310.179C988.823 313.133 991.808 316.796 993.84 321.166C995.871 325.475 996.887 330.43 996.887 336.032C996.887 342.31 995.563 347.912 992.916 352.836C990.331 357.699 986.669 361.823 981.929 365.208C977.189 368.594 971.588 371.148 965.124 372.872C958.723 374.596 951.675 375.457 943.981 375.457C937.764 375.457 931.577 374.719 925.422 373.241C919.328 371.702 913.788 369.363 908.802 366.224C903.816 363.085 899.815 359.053 896.799 354.129C893.844 349.204 892.367 343.295 892.367 336.401H924.868C924.868 339.109 925.668 341.541 927.269 343.695C928.93 345.85 931.208 347.542 934.101 348.773C936.994 350.005 940.287 350.62 943.981 350.62C948.289 350.62 951.952 349.943 954.968 348.589C958.046 347.235 960.385 345.388 961.985 343.049C963.586 340.71 964.386 338.125 964.386 335.293C964.386 331.969 963.986 329.168 963.186 326.891C962.385 324.552 961.185 322.674 959.585 321.259C957.984 319.781 955.984 318.735 953.583 318.119C951.244 317.442 948.536 317.104 945.458 317.104H928.284V301.13Z" fill="white"/>
<path d="M1072.97 267.522L1040.19 373.703H1005.38L1054.78 239.268H1076.85L1072.97 267.522ZM1100.11 373.703L1067.24 267.522L1063 239.268H1085.34L1135.01 373.703H1100.11ZM1098.82 323.567V348.589H1029.85V323.567H1098.82Z" fill="white"/>
<path d="M1175.46 324.121L1223.75 239.268H1256.15V373.703H1223.75V288.943L1175.46 373.703H1143.05V239.268H1175.46V324.121ZM1212.67 203.074H1233.99C1233.99 208.614 1232.58 213.538 1229.75 217.847C1226.98 222.095 1223.04 225.418 1217.93 227.819C1212.82 230.22 1206.79 231.42 1199.83 231.42C1189.31 231.42 1180.96 228.804 1174.81 223.572C1168.65 218.278 1165.58 211.446 1165.58 203.074H1186.81C1186.81 206.09 1187.8 208.799 1189.77 211.199C1191.74 213.6 1195.09 214.8 1199.83 214.8C1204.57 214.8 1207.89 213.6 1209.8 211.199C1211.71 208.799 1212.67 206.09 1212.67 203.074Z" fill="white"/>
<path d="M1292.07 239.268H1318.48L1348.49 332.8L1378.49 239.268H1404.9L1359.2 373.703H1337.77L1292.07 239.268ZM1276 239.268H1303.34L1308.41 342.31V373.703H1276V239.268ZM1393.64 239.268H1421.06V373.703H1388.56V342.31L1393.64 239.268Z" fill="white"/>
</svg>
